<svg width="64" height="64" xmlns="http://www.w3.org/2000/svg" xmlns:xlink="http://www.w3.org/1999/xlink" xmlns:svgjs="http://svgjs.com/svgjs" viewBox="22 184 64 64"><svg width="64" height="64" xmlns="http://www.w3.org/2000/svg" xmlns:xlink="http://www.w3.org/1999/xlink" xmlns:svgjs="http://svgjs.com/svgjs" fill="#180049" x="22" y="184"><svg xmlns="http://www.w3.org/2000/svg" xmlns:xlink="http://www.w3.org/1999/xlink" width="64" height="64"><path paint-order="stroke fill markers" fill-rule="evenodd" d="M32 64C14.304 64 0 49.696 0 32 0 14.304 14.304 0 32 0c17.696 0 32 14.304 32 32 0 17.696-14.304 32-32 32z"/></svg></svg><svg width="39" height="28" xmlns="http://www.w3.org/2000/svg" xmlns:xlink="http://www.w3.org/1999/xlink" xmlns:svgjs="http://svgjs.com/svgjs" viewBox="0.486 0 38.028 28" fill="#fff" x="34" y="202"><svg xmlns="http://www.w3.org/2000/svg" width="39" height="28" viewBox="1 0.01 38 27.979"><path paint-order="stroke fill markers" fill-rule="evenodd" d="M37.898 22.674l-6.278-4.23a.557.557 0 0 0-.622.923l6.278 4.23c.382.258.61.687.61 1.149v1.91c0 .152-.13.22-.222.22a.211.211 0 0 1-.12-.038L21.396 15.956a2.497 2.497 0 0 0-2.792 0l-5.418 3.651a.557.557 0 0 0 .622.924l5.418-3.652a1.384 1.384 0 0 1 1.548 0l11.964 8.063H7.262l4.391-2.96a.557.557 0 1 0-.621-.923l-8.576 5.778a.21.21 0 0 1-.12.04c-.093 0-.223-.07-.223-.222v-1.91c0-.46.228-.89.611-1.148l14.649-9.87c.308-.209.245-.47.245-1.215A2.384 2.384 0 0 1 20 10.131a2.384 2.384 0 0 1 2.382 2.381c0 .744-.063 1.006.245 1.214l6.217 4.19a.556.556 0 1 0 .622-.924l-5.97-4.023v-.457a3.5 3.5 0 0 0-2.94-3.45V7.709c0-.503.41-.913.914-.913a3.39 3.39 0 0 0 3.39-3.524A3.405 3.405 0 0 0 21.6.012a3.39 3.39 0 0 0-3.524 3.391.557.557 0 1 0 1.113 0 2.278 2.278 0 0 1 2.369-2.278 2.287 2.287 0 0 1 2.188 2.189 2.278 2.278 0 0 1-2.277 2.369 2.029 2.029 0 0 0-2.027 2.026v1.353a3.5 3.5 0 0 0-2.938 3.45v.457L2.102 22.674A2.494 2.494 0 0 0 1 24.746v1.91c0 .735.599 1.334 1.336 1.334.531 0 .547-.098 3.273-1.935H34.39l2.532 1.706c.222.15.479.229.742.229.737 0 1.336-.599 1.336-1.335v-1.91c0-.832-.412-1.606-1.102-2.071z"/></svg></svg></svg>