<svg width="64" height="64" xmlns="http://www.w3.org/2000/svg" xmlns:xlink="http://www.w3.org/1999/xlink" xmlns:svgjs="http://svgjs.com/svgjs" viewBox="100 184 64 64"><svg width="64" height="64" xmlns="http://www.w3.org/2000/svg" xmlns:xlink="http://www.w3.org/1999/xlink" xmlns:svgjs="http://svgjs.com/svgjs" fill="#180049" x="100" y="184"><svg xmlns="http://www.w3.org/2000/svg" xmlns:xlink="http://www.w3.org/1999/xlink" width="64" height="64"><path paint-order="stroke fill markers" fill-rule="evenodd" d="M32 64C14.304 64 0 49.696 0 32 0 14.304 14.304 0 32 0c17.696 0 32 14.304 32 32 0 17.696-14.304 32-32 32z"/></svg></svg><svg width="39" height="29" xmlns="http://www.w3.org/2000/svg" xmlns:xlink="http://www.w3.org/1999/xlink" xmlns:svgjs="http://svgjs.com/svgjs" viewBox="0 0.046 39 28.908" fill="#fff" x="113" y="202"><svg xmlns="http://www.w3.org/2000/svg" width="39" height="29" viewBox="0 0 38 28.167"><path paint-order="stroke fill markers" fill-rule="evenodd" d="M37.85 23.336c-.448-1.405-1.764-2.26-2.79-2.728-2.107-.963-4.417-3.011-6.483-5.35l.308-.19a.564.564 0 1 0-.59-.96l-.462.283c-.27-.324-.535-.651-.793-.98l.459-.298a.564.564 0 0 0-.614-.946l-.531.345c-.297-.4-.583-.8-.856-1.195l.393-.245a.564.564 0 1 0-.595-.958l-.426.265c-.743-1.148-1.358-2.24-1.795-3.183-.064-.17-.602-1.723.47-2.795a.564.564 0 1 0-.797-.798c-1.156 1.156-1.058 2.63-.886 3.434-.674.192-1.942.51-3.366.652-3.378.338-5.038-.542-5.836-1.34C9.763 3.453 9.574.565 9.573.538A.564.564 0 0 0 8.563.22L.117 11.216a.564.564 0 0 0 .14.817c.158.102 15.835 10.234 20.252 12.916 3.596 2.183 8.482 3.218 12.224 3.218 1.13 0 2.156-.095 3.009-.28a.564.564 0 0 0 .345-.232l1.753-2.55.003-.005a.579.579 0 0 0 .037-.064l.006-.012a.554.554 0 0 0 .025-.063l.002-.007.002-.007.003-.007c.034-.118.2-.765-.068-1.604zM13.486 16.86c4.315 2.759 7.267 4.622 8.777 5.54 3.595 2.183 8.481 3.217 12.223 3.217.595 0 1.16-.027 1.688-.079l-.887 1.29c-1.757.338-4.173.278-6.677-.167-2.834-.504-5.503-1.454-7.515-2.676-3.95-2.398-16.958-10.79-19.711-12.567l1.2-1.564c4.02 2.595 7.126 4.589 9.043 5.817a.56.56 0 0 0 .78-.17.564.564 0 0 0-.171-.78c-.85-.544-1.932-1.238-3.224-2.068A7.468 7.468 0 0 0 8.2 4.344a.564.564 0 0 0-.869.72 6.338 6.338 0 0 1 .729 6.976c-1.398-.898-3.001-1.931-4.786-3.083l5.415-7.05c.345 1.255 1.176 3.242 3.173 5.24 2.869 2.868 8.677 1.455 10.395.952a29.434 29.434 0 0 0 1.66 2.872L22 12.161a.564.564 0 1 0 .596.958l1.947-1.21c.279.405.569.812.868 1.216l-1.523.99a.564.564 0 0 0 .615.946l1.591-1.035c.253.324.51.645.77.96l-1.415.869a.564.564 0 1 0 .59.96l1.564-.96c3.085 3.535 5.49 5.094 6.988 5.779 2.042.933 2.291 2.121 2.283 2.675-1.741.303-4.084.234-6.511-.198-2.834-.504-5.503-1.454-7.515-2.675-1.502-.913-4.447-2.772-8.755-5.526a.564.564 0 0 0-.607.95z"/></svg></svg></svg>