<svg width="64" height="64" xmlns="http://www.w3.org/2000/svg" xmlns:xlink="http://www.w3.org/1999/xlink" xmlns:svgjs="http://svgjs.com/svgjs" viewBox="178 184 64 64"><svg width="64" height="64" xmlns="http://www.w3.org/2000/svg" xmlns:xlink="http://www.w3.org/1999/xlink" xmlns:svgjs="http://svgjs.com/svgjs" fill="#180049" x="178" y="184"><svg xmlns="http://www.w3.org/2000/svg" xmlns:xlink="http://www.w3.org/1999/xlink" width="64" height="64"><path paint-order="stroke fill markers" fill-rule="evenodd" d="M32 64C14.304 64 0 49.696 0 32 0 14.304 14.304 0 32 0c17.696 0 32 14.304 32 32 0 17.696-14.304 32-32 32z"/></svg></svg><svg width="38" height="38" xmlns="http://www.w3.org/2000/svg" xmlns:xlink="http://www.w3.org/1999/xlink" xmlns:svgjs="http://svgjs.com/svgjs" fill="#fff" x="191" y="197"><svg xmlns="http://www.w3.org/2000/svg" width="38" height="38"><path paint-order="stroke fill markers" fill-rule="evenodd" d="M32.53 5.472h-.001c-7.43-7.432-19.554-7.207-26.91.147-7.356 7.357-7.577 19.48-.148 26.91 7.485 7.485 19.612 7.15 26.91-.148 7.362-7.363 7.57-19.488.148-26.91zm2.597 8.621a11.188 11.188 0 0 1-7.947-1.698l4.535-4.535a16.421 16.421 0 0 1 3.412 6.233zM22.205 2.475a16.462 16.462 0 0 1 7.936 3.81l-4.696 4.696a11.173 11.173 0 0 1-3.24-8.506zm-2.994-.269c.26 0 .52.006.779.018a13.331 13.331 0 0 0 3.881 10.331l-4.87 4.871L8.006 6.433a16.951 16.951 0 0 1 11.204-4.227zM6.433 8.007L17.426 19l-4.871 4.871a13.33 13.33 0 0 0-10.33-3.881A16.955 16.955 0 0 1 6.433 8.007zM2.474 22.205c3.147-.176 6.26.993 8.507 3.24l-4.696 4.696a16.461 16.461 0 0 1-3.81-7.936zm11.62 12.922a16.421 16.421 0 0 1-6.234-3.412l4.535-4.535a11.189 11.189 0 0 1 1.698 7.947zm2.176.477a13.346 13.346 0 0 0-2.272-10.027L19 20.574l10.993 10.993a16.956 16.956 0 0 1-13.723 4.037zm15.297-5.61L20.574 19l5.003-5.002a13.34 13.34 0 0 0 10.027 2.272 16.956 16.956 0 0 1-4.037 13.723z"/></svg></svg></svg>