<svg width="68" height="68" xmlns="http://www.w3.org/2000/svg" xmlns:xlink="http://www.w3.org/1999/xlink" xmlns:svgjs="http://svgjs.com/svgjs" viewBox="254 180 68 68"><svg width="68" height="68" xmlns="http://www.w3.org/2000/svg" xmlns:xlink="http://www.w3.org/1999/xlink" xmlns:svgjs="http://svgjs.com/svgjs" fill="none" stroke-miterlimit="100" stroke="#1d0058" x="254" y="180"><svg xmlns="http://www.w3.org/2000/svg" xmlns:xlink="http://www.w3.org/1999/xlink" width="68" height="68"><path paint-order="stroke fill markers" d="M34 68C15.198 68 0 52.802 0 34S15.198 0 34 0s34 15.198 34 34-15.198 34-34 34z"/></svg></svg><svg width="64" height="64" xmlns="http://www.w3.org/2000/svg" xmlns:xlink="http://www.w3.org/1999/xlink" xmlns:svgjs="http://svgjs.com/svgjs" fill="#180049" x="256" y="182"><svg xmlns="http://www.w3.org/2000/svg" xmlns:xlink="http://www.w3.org/1999/xlink" width="64" height="64"><path paint-order="stroke fill markers" fill-rule="evenodd" d="M32 64C14.304 64 0 49.696 0 32 0 14.304 14.304 0 32 0c17.696 0 32 14.304 32 32 0 17.696-14.304 32-32 32z"/></svg></svg><svg width="39" height="39" xmlns="http://www.w3.org/2000/svg" xmlns:xlink="http://www.w3.org/1999/xlink" xmlns:svgjs="http://svgjs.com/svgjs" fill="#fff" x="269" y="195"><svg xmlns="http://www.w3.org/2000/svg" xmlns:xlink="http://www.w3.org/1999/xlink" width="39" height="39" viewBox="0 0 38.167 38.167"><path paint-order="stroke fill markers" fill-rule="evenodd" d="M19.083 0C8.543 0 0 8.544 0 19.083c0 10.54 8.544 19.084 19.083 19.084 10.54 0 19.084-8.544 19.084-19.084C38.155 8.55 29.617.012 19.083 0zm0 36.894c-9.837 0-17.81-7.974-17.81-17.81 0-9.838 7.973-17.812 17.81-17.812s17.811 7.974 17.811 17.811c-.01 9.832-7.979 17.8-17.81 17.811z"/></svg></svg><svg width="6" height="19" xmlns="http://www.w3.org/2000/svg" xmlns:xlink="http://www.w3.org/1999/xlink" xmlns:svgjs="http://svgjs.com/svgjs" viewBox="0.397 0 5.207 19" fill="#fff" x="295" y="205"><svg xmlns="http://www.w3.org/2000/svg" xmlns:xlink="http://www.w3.org/1999/xlink" width="6" height="19" viewBox="0.979 0.659 4.829 17.622"><path paint-order="stroke fill markers" fill-rule="evenodd" d="M2.816.886A.636.636 0 0 0 1.92.808L1.917.81a.636.636 0 0 0-.076.896 11.45 11.45 0 0 1-.675 15.488.636.636 0 1 0 .898.901A12.722 12.722 0 0 0 2.816.886z"/></svg></svg><svg width="8" height="23" xmlns="http://www.w3.org/2000/svg" xmlns:xlink="http://www.w3.org/1999/xlink" xmlns:svgjs="http://svgjs.com/svgjs" viewBox="0.279 0 7.442 23" fill="#fff" x="279" y="204"><svg xmlns="http://www.w3.org/2000/svg" xmlns:xlink="http://www.w3.org/1999/xlink" width="8" height="23" viewBox="0.814 0.542 6.997 21.625"><path paint-order="stroke fill markers" fill-rule="evenodd" d="M7.175.542a.636.636 0 0 0-.636.636v5.461L4.817 8.361a.636.636 0 0 0-.186.482l.556 11.132a.867.867 0 0 1-.24.648.896.896 0 0 1-1.267.006l-.005-.006a.866.866 0 0 1-.241-.648l.56-11.132a.637.637 0 0 0-.185-.482L2.086 6.64V1.178a.636.636 0 0 0-1.272 0v5.725c0 .169.067.33.186.45L2.71 9.062l-.543 10.851a2.149 2.149 0 1 0 4.293 0L5.916 9.062l1.709-1.71a.636.636 0 0 0 .186-.45V1.179a.636.636 0 0 0-.636-.636z"/></svg></svg><svg width="6" height="18" xmlns="http://www.w3.org/2000/svg" xmlns:xlink="http://www.w3.org/1999/xlink" xmlns:svgjs="http://svgjs.com/svgjs" viewBox="0.448 0 5.105 18" fill="#fff" x="275" y="206"><svg xmlns="http://www.w3.org/2000/svg" xmlns:xlink="http://www.w3.org/1999/xlink" width="6" height="18" viewBox="0.36 0.33 4.799 16.92"><path paint-order="stroke fill markers" fill-rule="evenodd" d="M4.972 16.162a11.377 11.377 0 0 1-3.339-8.079c-.006-2.42.76-4.78 2.189-6.735A.636.636 0 1 0 2.805.584l-.01.015A12.722 12.722 0 0 0 4.07 17.063a.637.637 0 0 0 .901-.901z"/></svg></svg><svg width="9" height="3" xmlns="http://www.w3.org/2000/svg" xmlns:xlink="http://www.w3.org/1999/xlink" xmlns:svgjs="http://svgjs.com/svgjs" viewBox="0 0.403 9 2.194" fill="#fff" x="283" y="201"><svg xmlns="http://www.w3.org/2000/svg" xmlns:xlink="http://www.w3.org/1999/xlink" width="9" height="3" viewBox="0.184 0.363 8.387 2.045"><path paint-order="stroke fill markers" fill-rule="evenodd" d="M8.084.717a12.834 12.834 0 0 0-7.488.46.636.636 0 0 0 .446 1.19 11.557 11.557 0 0 1 6.743-.414.636.636 0 1 0 .299-1.236z"/></svg></svg><svg width="2" height="7" xmlns="http://www.w3.org/2000/svg" xmlns:xlink="http://www.w3.org/1999/xlink" xmlns:svgjs="http://svgjs.com/svgjs" viewBox="0.3 0 1.4 7" fill="#fff" x="283" y="204"><svg xmlns="http://www.w3.org/2000/svg" xmlns:xlink="http://www.w3.org/1999/xlink" width="2" height="7" viewBox="0.631 0.542 1.272 6.361"><path paint-order="stroke fill markers" fill-rule="evenodd" d="M1.267.542a.636.636 0 0 0-.636.636v5.089a.636.636 0 1 0 1.272 0v-5.09a.636.636 0 0 0-.636-.635z"/></svg></svg><svg width="2" height="7" xmlns="http://www.w3.org/2000/svg" xmlns:xlink="http://www.w3.org/1999/xlink" xmlns:svgjs="http://svgjs.com/svgjs" viewBox="0.3 0 1.4 7" fill="#fff" x="281" y="204"><svg xmlns="http://www.w3.org/2000/svg" xmlns:xlink="http://www.w3.org/1999/xlink" width="2" height="7" viewBox="0.722 0.542 1.272 6.361"><path paint-order="stroke fill markers" fill-rule="evenodd" d="M1.358.542a.636.636 0 0 0-.636.636v5.089a.636.636 0 1 0 1.272 0v-5.09a.636.636 0 0 0-.636-.635z"/></svg></svg><svg width="8" height="23" xmlns="http://www.w3.org/2000/svg" xmlns:xlink="http://www.w3.org/1999/xlink" xmlns:svgjs="http://svgjs.com/svgjs" viewBox="0.281 0 7.438 23" fill="#fff" x="289" y="204"><svg xmlns="http://www.w3.org/2000/svg" width="8" height="23" viewBox="0.356 0.538 6.995 21.63"><path paint-order="stroke fill markers" fill-rule="evenodd" d="M7.027 3.863L6.62 2.52a2.92 2.92 0 0 0-5.53 0L.682 3.863a7.552 7.552 0 0 0-.21 3.499 3.29 3.29 0 0 0 1.694 2.293L1.708 19.88c-.061.57.124 1.14.509 1.566a2.222 2.222 0 0 0 3.28 0c.376-.414.56-.967.508-1.524l-.46-10.268a3.29 3.29 0 0 0 1.693-2.292 7.552 7.552 0 0 0-.21-3.499zM5.984 7.141a2.017 2.017 0 0 1-1.32 1.52.636.636 0 0 0-.411.623l.483 10.739a.736.736 0 0 1-.19.576c-.383.38-1 .38-1.383 0a.764.764 0 0 1-.187-.618l.48-10.697a.636.636 0 0 0-.412-.624 2.017 2.017 0 0 1-1.32-1.52 6.273 6.273 0 0 1 .175-2.904l.408-1.345a1.65 1.65 0 0 1 3.094 0l.409 1.345c.284.941.344 1.936.174 2.905z"/></svg></svg></svg>