<svg width="64" height="89" xmlns="http://www.w3.org/2000/svg" xmlns:xlink="http://www.w3.org/1999/xlink" xmlns:svgjs="http://svgjs.com/svgjs" viewBox="334 169 64 89"><svg width="64" height="64" xmlns="http://www.w3.org/2000/svg" xmlns:xlink="http://www.w3.org/1999/xlink" xmlns:svgjs="http://svgjs.com/svgjs" fill="#180049" x="334" y="182"><svg xmlns="http://www.w3.org/2000/svg" xmlns:xlink="http://www.w3.org/1999/xlink" width="64" height="64"><path paint-order="stroke fill markers" fill-rule="evenodd" d="M32 64C14.304 64 0 49.696 0 32 0 14.304 14.304 0 32 0c17.696 0 32 14.304 32 32 0 17.696-14.304 32-32 32z"/></svg></svg><svg width="41" height="89" xmlns="http://www.w3.org/2000/svg" xmlns:xlink="http://www.w3.org/1999/xlink" xmlns:svgjs="http://svgjs.com/svgjs" viewBox="346 169 41 89" x="346" y="169"><svg width="41" height="32" xmlns="http://www.w3.org/2000/svg" xmlns:xlink="http://www.w3.org/1999/xlink" xmlns:svgjs="http://svgjs.com/svgjs" viewBox="346 198 41 32" x="346" y="198"><svg width="41" height="32" xmlns="http://www.w3.org/2000/svg" xmlns:xlink="http://www.w3.org/1999/xlink" xmlns:svgjs="http://svgjs.com/svgjs" viewBox="346 198 41 32" x="346" y="198"><svg width="41" height="32" xmlns="http://www.w3.org/2000/svg" xmlns:xlink="http://www.w3.org/1999/xlink" xmlns:svgjs="http://svgjs.com/svgjs" viewBox="0 0.241 41 31.519" fill="#fff" x="346" y="198"><svg xmlns="http://www.w3.org/2000/svg" xmlns:xlink="http://www.w3.org/1999/xlink" width="41" height="32" viewBox="0 0.429 40.003 30.752"><path paint-order="stroke fill markers" fill-rule="evenodd" d="M40.001 28.311v-.017a.554.554 0 0 0-.011-.068l-.002-.007a.608.608 0 0 0-.017-.06l-.005-.015a.527.527 0 0 0-.023-.052l-.003-.01-3.135-6.18V1.563c0-.626-.508-1.135-1.134-1.135H4.331c-.625 0-1.134.51-1.134 1.135V21.9L.063 28.083l-.003.009a.605.605 0 0 0-.023.051l-.005.016a.612.612 0 0 0-.018.06l-.001.007a.599.599 0 0 0-.01.068l-.001.017-.002.037v1.486c0 .743.604 1.348 1.347 1.348h37.309c.743 0 1.347-.605 1.347-1.348v-1.486L40 28.31zM4.37 1.601h31.265v19.854H4.369V1.602zm-.226 21.026H35.86l2.603 5.135H25.588l-.646-2.343a1.106 1.106 0 0 0-1.064-.81h-7.754c-.494 0-.932.333-1.064.81l-.646 2.343H1.54l2.603-5.135zm20.23 5.135H15.63l.546-1.981h7.65l.547 1.98zm14.458 2.072a.176.176 0 0 1-.175.176H1.347a.175.175 0 0 1-.175-.176v-.9h37.659v.9z"/></svg></svg></svg></svg><svg width="1" height="89" xmlns="http://www.w3.org/2000/svg" xmlns:xlink="http://www.w3.org/1999/xlink" xmlns:svgjs="http://svgjs.com/svgjs" viewBox="386 169 1 89" x="386" y="169"><svg width="1" height="89" xmlns="http://www.w3.org/2000/svg" xmlns:xlink="http://www.w3.org/1999/xlink" xmlns:svgjs="http://svgjs.com/svgjs" viewBox="386 169 1 89" x="386" y="169"><svg width="1" height="89" xmlns="http://www.w3.org/2000/svg" xmlns:xlink="http://www.w3.org/1999/xlink" xmlns:svgjs="http://svgjs.com/svgjs" fill="#fff" x="386" y="169"><svg xmlns="http://www.w3.org/2000/svg" xmlns:xlink="http://www.w3.org/1999/xlink" width="1" height="89"><path paint-order="stroke fill markers" fill-rule="evenodd" d="M.003 1V1z"/></svg></svg></svg></svg><svg width="1" height="88" xmlns="http://www.w3.org/2000/svg" xmlns:xlink="http://www.w3.org/1999/xlink" xmlns:svgjs="http://svgjs.com/svgjs" viewBox="386 170 1 88" x="386" y="170"><svg width="1" height="88" xmlns="http://www.w3.org/2000/svg" xmlns:xlink="http://www.w3.org/1999/xlink" xmlns:svgjs="http://svgjs.com/svgjs" viewBox="386 170 1 88" x="386" y="170"><svg width="1" height="88" xmlns="http://www.w3.org/2000/svg" xmlns:xlink="http://www.w3.org/1999/xlink" xmlns:svgjs="http://svgjs.com/svgjs" fill="#fff" x="386" y="170"><svg xmlns="http://www.w3.org/2000/svg" width="1" height="88"><path paint-order="stroke fill markers" fill-rule="evenodd" d="M.003 0V0z"/></svg></svg></svg></svg></svg></svg>