<svg width="27" height="26" xmlns="http://www.w3.org/2000/svg" xmlns:xlink="http://www.w3.org/1999/xlink" xmlns:svgjs="http://svgjs.com/svgjs" viewBox="116 481 27 26"><svg width="21" height="17" xmlns="http://www.w3.org/2000/svg" xmlns:xlink="http://www.w3.org/1999/xlink" xmlns:svgjs="http://svgjs.com/svgjs" viewBox="122 490 21 17" x="122" y="490"><svg width="8" height="17" xmlns="http://www.w3.org/2000/svg" xmlns:xlink="http://www.w3.org/1999/xlink" xmlns:svgjs="http://svgjs.com/svgjs" viewBox="0 0.666 8 15.669" fill="#44c868" x="135" y="490"><svg xmlns="http://www.w3.org/2000/svg" xmlns:xlink="http://www.w3.org/1999/xlink" width="8" height="17" viewBox="0.113 0.622 7.887 15.447"><path paint-order="stroke fill markers" fill-rule="evenodd" d="M7.993 15.602L5.873 3.916a.395.395 0 0 0-.198-.276L.336.67A.394.394 0 0 0 .113.624l.971 12.53-.032.015 6.39 2.866a.396.396 0 0 0 .551-.432z"/></svg></svg><svg width="8" height="17" xmlns="http://www.w3.org/2000/svg" xmlns:xlink="http://www.w3.org/1999/xlink" xmlns:svgjs="http://svgjs.com/svgjs" viewBox="0.377 0 7.246 17" fill="#44c868" x="122" y="490"><svg xmlns="http://www.w3.org/2000/svg" xmlns:xlink="http://www.w3.org/1999/xlink" width="8" height="17" viewBox="0.916 0.622 6.584 15.447"><path paint-order="stroke fill markers" fill-rule="evenodd" d="M7.5 3.51L2.04.666a.395.395 0 0 0-.153-.043l-.971 12.53 6.422 2.881a.397.397 0 0 0 .162.035V3.509z"/></svg></svg></svg><svg width="21" height="17" xmlns="http://www.w3.org/2000/svg" xmlns:xlink="http://www.w3.org/1999/xlink" xmlns:svgjs="http://svgjs.com/svgjs" viewBox="116 490 21 17" x="116" y="490"><svg width="8" height="17" xmlns="http://www.w3.org/2000/svg" xmlns:xlink="http://www.w3.org/1999/xlink" xmlns:svgjs="http://svgjs.com/svgjs" viewBox="0 0.666 8 15.669" fill="#4ce166" x="116" y="490"><svg xmlns="http://www.w3.org/2000/svg" xmlns:xlink="http://www.w3.org/1999/xlink" width="8" height="17" viewBox="0 0.622 7.887 15.447"><path paint-order="stroke fill markers" fill-rule="evenodd" d="M7.887.623a.395.395 0 0 0-.223.048l-5.34 2.97a.396.396 0 0 0-.197.275L.007 15.602a.395.395 0 0 0 .551.432l6.355-2.85L7.887.622z"/></svg></svg><svg width="8" height="17" xmlns="http://www.w3.org/2000/svg" xmlns:xlink="http://www.w3.org/1999/xlink" xmlns:svgjs="http://svgjs.com/svgjs" viewBox="0.377 0 7.247 17" fill="#4ce166" x="129" y="490"><svg xmlns="http://www.w3.org/2000/svg" xmlns:xlink="http://www.w3.org/1999/xlink" width="8" height="17" viewBox="0.5 0.623 6.584 15.446"><path paint-order="stroke fill markers" fill-rule="evenodd" d="M6.113.623a.393.393 0 0 0-.153.043L.5 3.51v12.559c.055 0 .11-.012.162-.035l6.422-2.881L6.113.623z"/></svg></svg></svg><svg width="7" height="6" xmlns="http://www.w3.org/2000/svg" xmlns:xlink="http://www.w3.org/1999/xlink" xmlns:svgjs="http://svgjs.com/svgjs" viewBox="0 0.01 7 5.98" fill="#ffdb56" x="117" y="494"><svg xmlns="http://www.w3.org/2000/svg" xmlns:xlink="http://www.w3.org/1999/xlink" width="7" height="6" viewBox="0.054 0.233 6.553 5.598"><path paint-order="stroke fill markers" fill-rule="evenodd" d="M.485 3.457L.054 5.831l6.38-3.37.148-1.91.025-.318L.485 3.457z"/></svg></svg><svg width="8" height="12" xmlns="http://www.w3.org/2000/svg" xmlns:xlink="http://www.w3.org/1999/xlink" xmlns:svgjs="http://svgjs.com/svgjs" viewBox="0 0.475 8 11.051" fill="#a8eefc" x="116" y="495"><svg xmlns="http://www.w3.org/2000/svg" xmlns:xlink="http://www.w3.org/1999/xlink" width="8" height="12" viewBox="0 0.72 7.492 10.348"><path paint-order="stroke fill markers" fill-rule="evenodd" d="M7.492.72l-.058.741-6.38 3.37-1.048 5.771a.395.395 0 0 0 .552.432l6.355-2.85L7.492.72z"/></svg></svg><svg width="18" height="15" xmlns="http://www.w3.org/2000/svg" xmlns:xlink="http://www.w3.org/1999/xlink" xmlns:svgjs="http://svgjs.com/svgjs" viewBox="123 491 18 15" x="123" y="491"><svg width="7" height="12" xmlns="http://www.w3.org/2000/svg" xmlns:xlink="http://www.w3.org/1999/xlink" xmlns:svgjs="http://svgjs.com/svgjs" viewBox="0.318 0 6.365 12" fill="#ffbb24" x="123" y="494"><svg xmlns="http://www.w3.org/2000/svg" xmlns:xlink="http://www.w3.org/1999/xlink" width="7" height="12" viewBox="0.434 0.233 6.067 11.44"><path paint-order="stroke fill markers" fill-rule="evenodd" d="M6.502 1.076L.607.233.434 2.461 6.5 11.673v-3.35l-3.62-5.7 3.622.434v-1.98z"/></svg></svg><svg width="6" height="4" xmlns="http://www.w3.org/2000/svg" xmlns:xlink="http://www.w3.org/1999/xlink" xmlns:svgjs="http://svgjs.com/svgjs" viewBox="0 0.494 6 3.012" fill="#ffbb24" x="135" y="491"><svg xmlns="http://www.w3.org/2000/svg" xmlns:xlink="http://www.w3.org/1999/xlink" width="6" height="4" viewBox="0.262 0.98 4.993 2.506"><path paint-order="stroke fill markers" fill-rule="evenodd" d="M5.255 2.407L2.69.98l-2.428.568.03.392.12 1.547 4.843-1.08z"/></svg></svg></svg><svg width="7" height="6" xmlns="http://www.w3.org/2000/svg" xmlns:xlink="http://www.w3.org/1999/xlink" xmlns:svgjs="http://svgjs.com/svgjs" viewBox="0 0.305 7 5.39" fill="#ffdb56" x="129" y="492"><svg xmlns="http://www.w3.org/2000/svg" xmlns:xlink="http://www.w3.org/1999/xlink" width="7" height="6" viewBox="0.501 0.548 6.126 4.717"><path paint-order="stroke fill markers" fill-rule="evenodd" d="M6.628 5.264l-.23-2.966-.136-1.75-5.76 2.528v1.981l3.762-1.636 2.364 1.843z"/></svg></svg><svg width="8" height="12" xmlns="http://www.w3.org/2000/svg" xmlns:xlink="http://www.w3.org/1999/xlink" xmlns:svgjs="http://svgjs.com/svgjs" viewBox="0.038 0 7.924 12" fill="#ffbb24" x="135" y="494"><svg xmlns="http://www.w3.org/2000/svg" xmlns:xlink="http://www.w3.org/1999/xlink" width="8" height="12" viewBox="0.413 0.487 7.587 11.491"><path paint-order="stroke fill markers" fill-rule="evenodd" d="M7.993 11.602l-.532-2.935L.413.487l.215 2.777 7.228 8.713a.396.396 0 0 0 .137-.375z"/></svg></svg><svg width="13" height="16" xmlns="http://www.w3.org/2000/svg" xmlns:xlink="http://www.w3.org/1999/xlink" xmlns:svgjs="http://svgjs.com/svgjs" viewBox="0.271 0 12.457 16" fill="#ff4a4a" x="123" y="481"><svg xmlns="http://www.w3.org/2000/svg" xmlns:xlink="http://www.w3.org/1999/xlink" width="13" height="16" viewBox="0.982 0.966 11.087 14.24"><path paint-order="stroke fill markers" fill-rule="evenodd" d="M6.525.966A5.547 5.547 0 0 0 .982 6.505c0 1.889.897 3.917 2.666 6.028a18.956 18.956 0 0 0 2.635 2.59.397.397 0 0 0 .485 0 18.956 18.956 0 0 0 2.635-2.59c1.769-2.11 2.666-4.14 2.666-6.028A5.547 5.547 0 0 0 6.525.965zm2.053 5.538a2.052 2.052 0 1 1-4.104-.001 2.052 2.052 0 0 1 4.104.001z"/></svg></svg><svg width="8" height="16" xmlns="http://www.w3.org/2000/svg" xmlns:xlink="http://www.w3.org/1999/xlink" xmlns:svgjs="http://svgjs.com/svgjs" viewBox="0.484 0 7.032 16" fill="#e7343f" x="128" y="481"><svg xmlns="http://www.w3.org/2000/svg" xmlns:xlink="http://www.w3.org/1999/xlink" width="8" height="16" viewBox="0.81 0.966 6.259 14.24"><path paint-order="stroke fill markers" fill-rule="evenodd" d="M1.525.966c-.242 0-.48.015-.715.046A5.549 5.549 0 0 1 5.64 6.505c0 1.889-.897 3.917-2.666 6.028A19.857 19.857 0 0 1 .81 14.731c.277.24.454.377.473.392a.396.396 0 0 0 .485 0 18.956 18.956 0 0 0 2.635-2.59c1.769-2.11 2.666-4.14 2.666-6.028A5.547 5.547 0 0 0 1.525.965z"/></svg></svg><svg width="4" height="5" xmlns="http://www.w3.org/2000/svg" xmlns:xlink="http://www.w3.org/1999/xlink" xmlns:svgjs="http://svgjs.com/svgjs" viewBox="0.298 0 3.405 5" fill="#ffdb56" x="129" y="502"><svg xmlns="http://www.w3.org/2000/svg" xmlns:xlink="http://www.w3.org/1999/xlink" width="4" height="5" viewBox="0.5 0.323 2.551 3.746"><path paint-order="stroke fill markers" fill-rule="evenodd" d="M.662 4.034L3.05 2.963.5.323V4.07c.055 0 .11-.012.162-.035z"/></svg></svg><svg width="21" height="14" xmlns="http://www.w3.org/2000/svg" xmlns:xlink="http://www.w3.org/1999/xlink" xmlns:svgjs="http://svgjs.com/svgjs" viewBox="122 493 21 14" x="122" y="493"><svg width="8" height="10" xmlns="http://www.w3.org/2000/svg" xmlns:xlink="http://www.w3.org/1999/xlink" xmlns:svgjs="http://svgjs.com/svgjs" viewBox="0.194 0 7.612 10" fill="#1ea4e9" x="135" y="493"><svg xmlns="http://www.w3.org/2000/svg" xmlns:xlink="http://www.w3.org/1999/xlink" width="8" height="10" viewBox="0.412 0.407 7.048 9.26"><path paint-order="stroke fill markers" fill-rule="evenodd" d="M5.872.916A.395.395 0 0 0 5.675.64l-.42-.233-4.843 1.08 7.049 8.18L5.872.916z"/></svg></svg><svg width="8" height="11" xmlns="http://www.w3.org/2000/svg" xmlns:xlink="http://www.w3.org/1999/xlink" xmlns:svgjs="http://svgjs.com/svgjs" viewBox="0.231 0 7.539 11" fill="#1ea4e9" x="122" y="496"><svg xmlns="http://www.w3.org/2000/svg" width="8" height="11" viewBox="0.915 0.461 6.584 9.607"><path paint-order="stroke fill markers" fill-rule="evenodd" d="M7.5 10.069v-.396L1.434.46.915 7.153l6.422 2.881a.397.397 0 0 0 .163.035z"/></svg></svg></svg></svg>