<svg width="39" height="38" xmlns="http://www.w3.org/2000/svg" xmlns:xlink="http://www.w3.org/1999/xlink" xmlns:svgjs="http://svgjs.com/svgjs" viewBox="0.496 0 38.008 38" fill="#fff"><svg xmlns="http://www.w3.org/2000/svg" width="39" height="38" viewBox="0 0 38.008 38"><path paint-order="stroke fill markers" fill-rule="evenodd" d="M33.725 4.276c-5.674-5.69-14.886-5.703-20.575-.03-5.49 5.476-5.722 14.293-.528 20.05l-1.112 1.11a2.299 2.299 0 0 0-3.25 0L.672 32.992a2.299 2.299 0 0 0 0 3.251l1.084 1.084a2.3 2.3 0 0 0 3.25 0l7.586-7.586a2.299 2.299 0 0 0 0-3.25v-.001l1.111-1.111c5.962 5.387 15.162 4.922 20.549-1.04 5.204-5.758 4.971-14.587-.528-20.063zM11.51 28.656l-7.585 7.587c-.3.299-.785.299-1.084 0l-1.084-1.085a.767.767 0 0 1 0-1.082l7.586-7.586a.784.784 0 0 1 1.084 0l1.083 1.084c.3.3.3.784 0 1.083zm21.132-4.875c-5.087 5.087-13.335 5.087-18.422 0s-5.087-13.335 0-18.422 13.335-5.087 18.422 0c5.079 5.09 5.079 13.332 0 18.422z"/></svg></svg>